# xmcd CD database file
# Copyright (C) 1996 Ti Kan
#
# Track frame offsets:
#  150
#  24130
#  36192
#  50630
#  63165
#  75400
#  85405
#  108490
#  120050
#  133907
#  142057
#  156797
#  167337
#  180757
#  189927
#  202752
#  214145
#  227927
#  242595
#  263340
#  275352
#  285202
#
# Disc length: 4020 seconds
#
# Revision: 2
# Processed by: cddbd v1.4b41PL1 Copyright (c) Steve Scherf et al.
# Submitted via: CDWizzard Release:4.12
#
DISCID=140fb216
DTITLE=Jesse Fuller - Frisco Bound
DYEAR=1900
DGENRE=
TTITLE0=Leaving Memphis, Frisco Bound
TTITLE1=Got A Date At Half Past Eight
TTITLE2=Hump In My Back
TTITLE3=Flavor In My Cream
TTITLE4=Finger Twister
TTITLE5=Just Like A Ship On The Deep Blue Sea
TTITLE6=Cincinnati Blues
TTITLE7=Just A Closer Walk With Thee
TTITLE8=Motherless Children
TTITLE9=Amazing Grace
TTITLE10=Hark From The Tomb
TTITLE11=As Long As I Can Feel The Spirit
TTITLE12=I'm Going To Sit Down At The Welcome Table
TTITLE13=Together Let Us Live
TTITLE14=Memphis Boogie
TTITLE15=Footdella Stomp
TTITLE16=Crazy About A Woman
TTITLE17=99 Years
TTITLE18=Stranger's Blues
TTITLE19=Bill Bailey
TTITLE20=Preacher Lowdown
TTITLE21=San Francisco Bay Blues
EXTD=
EXTT0=
EXTT1=
EXTT2=
EXTT3=
EXTT4=
EXTT5=
EXTT6=
EXTT7=
EXTT8=
EXTT9=
EXTT10=
EXTT11=
EXTT12=
EXTT13=
EXTT14=
EXTT15=
EXTT16=
EXTT17=
EXTT18=
EXTT19=
EXTT20=
EXTT21=
PLAYORDER=
